<svg height="35" width="35" viewBox="0 0 57 65" fill="none" xmlns="http://www.w3.org/2000/svg">
    <path d="M56.277 32.11V17.736c0-.027-.01-.052-.01-.08a3.07 3.07 0 0 0-.095-.714l-.008-.02a3.06 3.06 0 0 0-.264-.638c-.032-.06-.069-.115-.105-.172a3.011 3.011 0 0 0-.327-.429c-.044-.05-.086-.1-.134-.146a3.026 3.026 0 0 0-.578-.448L29.66.534a3.03 3.03 0 0 0-3.042 0L1.52 15.089A3.058 3.058 0 0 0 0 17.735v36.207c0 1.092.58 2.1 1.521 2.646l12.394 7.188c.035.02.075.027.111.047.163.085.333.155.51.211.065.02.128.045.193.06.218.053.442.086.675.088.01 0 .019.004.028.004h.007c.244 0 .477-.037.706-.092.063-.016.123-.04.186-.058.17-.053.333-.119.489-.2a2.852 2.852 0 0 0 .688-.48c.023-.021.047-.037.068-.058.173-.172.317-.369.444-.577.015-.024.036-.04.049-.063.03-.051.045-.106.071-.157.05-.1.096-.198.135-.302.034-.093.062-.186.087-.28.025-.096.049-.19.065-.288.018-.11.027-.22.033-.33.003-.057.018-.111.018-.17V26.687l22.055-12.79 6.618 3.838-20.533 11.909a3.058 3.058 0 0 0-1.521 2.646v14.375c0 .028.01.053.01.08.006.242.033.482.094.714.002.008.006.014.008.02.061.223.155.435.264.638.033.06.069.116.106.172.095.152.203.295.326.43.045.05.086.1.135.146.173.167.36.32.578.447l25.096 14.555a3.03 3.03 0 0 0 3.042 0 3.058 3.058 0 0 0 1.52-2.647V47.15a3.599 3.599 0 0 0-1.784-3.106l-7.875-4.567 8.14-4.72a3.057 3.057 0 0 0 1.52-2.646zM12.394 55.839l-6.31-3.66V33.875l6.31-3.66v25.623zm-6.31-29.02V19.5L28.139 6.71l6.31 3.66-28.365 16.45zm44.109 21.79v7.32l-15.97-9.262 6.31-3.66 9.66 5.602zm0-18.261L31.18 41.373v-7.32l19.012-11.025v7.319z" fill="#000">
    </path>
</svg>